<svg xmlns="http://www.w3.org/2000/svg" xmlns:xlink="http://www.w3.org/1999/xlink" version="1.1" width="1000" height="1000" viewBox="0 0 1000 1000" xml:space="preserve">
<desc>Created with Fabric.js 3.5.0</desc>
<defs>
</defs>
<rect x="0" y="0" width="100%" height="100%" fill="#ffffff"/>
<g transform="matrix(1.1364 0 0 -1.1364 499.9855 499.9855)" id="565209">
<g style="" vector-effect="non-scaling-stroke">
		<g transform="matrix(33.3333 0 0 33.3333 16.6666 66.6664)" id="secondary-fill">
<rect style="stroke: none; stroke-width: 2; stroke-dasharray: none; stroke-linecap: butt; stroke-dashoffset: 0; stroke-linejoin: miter; stroke-miterlimit: 4; is-custom-font: none; font-file-url: none; fill: rgb(44,169,188); fill-rule: nonzero; opacity: 1;" x="-1.5" y="-7" rx="0" ry="0" width="3" height="14"/>
</g>
		<g transform="matrix(33.3333 0 0 33.3333 -0.0003 -0.0003)" id="tertiary-fill">
<path style="stroke: none; stroke-width: 2; stroke-dasharray: none; stroke-linecap: butt; stroke-dashoffset: 0; stroke-linejoin: miter; stroke-miterlimit: 4; is-custom-font: none; font-file-url: none; fill: rgb(183,183,183); fill-rule: nonzero; opacity: 1;" transform=" translate(-12, -12)" d="M 6 21 H 3 V 12 H 6 Z M 21 3 H 18 V 21 h 3 Z" stroke-linecap="round"/>
</g>
		<g transform="matrix(33.3333 0 0 33.3333 -0.0003 -0.0003)" id="primary-stroke">
<path style="stroke: rgb(0,0,0); stroke-width: 2; stroke-dasharray: none; stroke-linecap: round; stroke-dashoffset: 0; stroke-linejoin: round; stroke-miterlimit: 4; is-custom-font: none; font-file-url: none; fill: none; fill-rule: nonzero; opacity: 1;" transform=" translate(-12, -12)" d="M 13.5 21 h -3 V 7 h 3 Z M 6 12 H 3 v 9 H 6 Z m 15 9 H 18 V 3 h 3 Z" stroke-linecap="round"/>
</g>
</g>
</g>
</svg>